<?xml version="1.0" standalone="no"?><svg xmlns="http://www.w3.org/2000/svg" viewBox="0 0 1440 320"><path fill="#000000" fill-opacity="1" d="M0,288L24,277.3C48,267,96,245,144,213.3C192,181,240,139,288,112C336,85,384,75,432,69.3C480,64,528,64,576,90.7C624,117,672,171,720,170.7C768,171,816,117,864,96C912,75,960,85,1008,128C1056,171,1104,245,1152,261.3C1200,277,1248,235,1296,192C1344,149,1392,107,1416,85.3L1440,64L1440,320L1416,320C1392,320,1344,320,1296,320C1248,320,1200,320,1152,320C1104,320,1056,320,1008,320C960,320,912,320,864,320C816,320,768,320,720,320C672,320,624,320,576,320C528,320,480,320,432,320C384,320,336,320,288,320C240,320,192,320,144,320C96,320,48,320,24,320L0,320Z"></path></svg>